<?xml version="1.0" encoding="UTF-8" standalone="no"?>
<svg
   xmlns:dc="http://purl.org/dc/elements/1.1/"
   xmlns:cc="http://creativecommons.org/ns#"
   xmlns:rdf="http://www.w3.org/1999/02/22-rdf-syntax-ns#"
   xmlns:svg="http://www.w3.org/2000/svg"
   xmlns="http://www.w3.org/2000/svg"
   xmlns:xlink="http://www.w3.org/1999/xlink"
   version="1.1"
   id="Premium Cola - 0.33 - Flaschengrafik"
   viewBox22="0 0 744.09448819 1052.3622047"
   viewBox="0 0 1000 1252"
   height="297mm"
   width="210mm">
   
   <style
   		id="style47330">
.bottle-fill {
    fill:url(#hatching);
    stroke:#00e;
    stroke-width:0;
}
.bottle-outline {
	fill:none;
	stroke:#000;
	stroke-width:2;
}
.bottle-cap {
	fill:none;
	stroke:#000;
	stroke-width:2;
}

.component-line {
	fill:none;
	stroke:#000;
	stroke-width:1;
}
.component-text {
    font-size:18px;
    font-family:'Franklin Gothic Medium Cond';
    font-weight:normal;
    font-stretch:condensed;
    font-variant:normal;
    text-anchor:end;
    text-transform:uppercase;
}

.title {
    font-size:32px;
    font-family:'Franklin Gothic Medium Cond';
    font-weight:bolder;
    font-stretch:condensed;
    font-variant:normal;
    text-anchor:end;
    text-transform:uppercase;
}
.subtitle {
    font-size:22px;
    font-family:'Franklin Gothic Medium Cond';
    font-weight:normal;
    font-stretch:condensed;
    font-variant:normal;
    text-anchor:end;
    text-transform:uppercase;
}
.author {
    font-size:18px;
    font-family:'Franklin Gothic Medium Cond';
    font-weight:normal;
    font-stretch:condensed;
    font-variant:normal;
    text-anchor:start;
    text-transform:uppercase;
}

.ruler-line {
	stroke:#000;
	stroke-width:1;
}
.ruler5-line {
	stroke:#000;
	stroke-width:2;
}
.ruler10-line {
	stroke:#000;
	stroke-width:2;
}

.ruler-fill {
    fill:url(#ruler);
}
.ruler-num {
    font-size:18px;
    font-family:'Franklin Gothic Medium Cond';
    font-weight:normal;
    font-stretch:condensed;
    font-variant:normal;
}

.set-line {
	fill:none;
	stroke:#000;
	stroke-width:2;
}
.set-text {
    font-size:22px;
    font-family:'Franklin Gothic Medium Cond';
    font-weight:normal;
    font-stretch:condensed;
    font-variant:normal;
    text-anchor:end;
    text-transform:uppercase;
}
.set-num {
    font-size:18px;
    font-family:'Franklin Gothic Medium Cond';
    font-weight:normal;
    font-stretch:condensed;
    font-variant:normal;
    text-anchor:end;
    text-transform:uppercase;
}
.sub-total-bg {
	fill:#000;
}
.sub-total-num {
	font-size:22px;
    font-family:'Franklin Gothic Medium Cond';
    font-weight:normal;
    font-stretch:condensed;
    font-variant:normal;
    text-anchor:middle;
    text-transform:uppercase;
    fill:#fff;
}


.dashed-line {

	stroke:#000;
	stroke-width:1;
	stroke-dasharray:10,10;
}
	</style>
	<defs
     		id="defs46008">
		<pattern id="hatching"
			   width="8" height="1"
			   patternUnits="userSpaceOnUse"
			   patternTransform="rotate(45 50 50)">
		   <line stroke="#000" stroke-width="5px" y2="10"/>
		</pattern>
	
		<pattern id="ruler"
				width="50" height="50"
				patternUnits="userSpaceOnUse">
			<line id="rulerline" class="ruler-line" y1="1" y2="1" x2="15"/>
			<use xlink:href="#rulerline"  transform="translate(0,5)"/>
			<use xlink:href="#rulerline"  transform="translate(0,10)"/>
			<use xlink:href="#rulerline"  transform="translate(0,15)"/>
			<line id="rulerline10" class="ruler5-line" y1="21" y2="21" x2="25"/>
			<use xlink:href="#rulerline"  transform="translate(0,25)"/>
			<use xlink:href="#rulerline"  transform="translate(0,30)"/>
			<use xlink:href="#rulerline"  transform="translate(0,35)"/>
			<use xlink:href="#rulerline"  transform="translate(0,40)"/>
			<line id="rulerline10" class="ruler10-line" y1="46" y2="46" x2="40"/>
		</pattern>
   
	</defs>
	<metadata
	 		id="metadata46011">
		<rdf:RDF>
		  <cc:Work
			 rdf:about="">
			<dc:format>image/svg+xml</dc:format>
			<dc:type
			   rdf:resource="http://purl.org/dc/dcmitype/StillImage" />
			<dc:title></dc:title>
		  </cc:Work>
		</rdf:RDF>
	</metadata>
  
	<g
	 id="bottle"
	 transform="scale(1.4,1.4) translate(-30,-40)">
	<path
	   id="fill"
	   d="m 165,895 c 0,0 -78.863944,0.083 -93.923164,0 -3.62728,-0.02 -11.10736,-3.8423 -11.34897,-16.1159 -0.82522,-41.9194 -0.096,-182.8563 -0.73433,-226.43719 -1.27657,-87.1618 -3.21432,-167.04064 4.6639,-197.92232 3.65118,-14.30368 10.12933,-27.1667 16.68383,-39.96141 6.5545,-12.79471 13.18534,-25.5211 17.14193,-39.55153 8.208524,-29.10819 13.357754,-113 13.357754,-113 l 52.51959,0"
	   class="bottle-fill" 
	/>
	<path
	   d="m 165,895 c 0,0 -78.863944,0.083 -93.923164,0 -3.62728,-0.02 -11.10736,-3.8423 -11.34897,-16.1159 -0.82522,-41.9194 -0.096,-182.8563 -0.73433,-226.43719 -1.27657,-87.1618 -3.21432,-167.04064 4.6639,-197.92232 3.65118,-14.30368 10.12933,-27.1667 16.68383,-39.96141 6.5545,-12.79471 13.18534,-25.5211 17.14193,-39.55153 8.208524,-29.10819 13.700714,-120.98066 15.357754,-151.88105 1.65705,-30.9004 2.75502,-62.10279 4.14616,-93.33593 0,0 -4.68756,0.42469 -5.93836,-4.56056 -2.85449,-11.37699 7.92896,-38.215869 7.92896,-38.215869 0,0 -1.65377,-3.68622 -2.36946,-5.51173 -1.93146,-0.82835 -2.26938,-4.09216 -1.73615,-7.25043 0.60685,-3.59429 4.42032,-6.96535 8.46621,-7.07106 13.49743,-0.35267 40.97092,-0.0108 40.97092,-0.0108"
	   id="outline" 
	   class="bottle-outline"
	/>
	<path
	   id="cap"
	   class="bottle-cap"
	   d="m 119.5464,86.729791 c 1.43529,0.15313 3.91192,-2.09845 6.4917,-2.0689 2.57978,0.0295 4.43939,1.37868 8.00508,1.49171 3.56569,0.11303 4.38854,-1.19494 7.27679,-1.42857 2.88824,-0.23363 3.94308,1.35809 7.32143,1.38393 3.37835,0.0258 5.50652,-1.39745 7.90178,-1.42857 2.39527,-0.0311 3.79802,1.66063 8.08036,1.42856"
	/>
	</g>

   


<!--

Ruler

-->
	<g>
		<rect
			x="200"
			y="0"
			width="35"
			height="1200"
			class="ruler-fill"/>
		<g
			transform="translate(0,1200)">>

			<text
			   x="240"
			   y="-50"
			   class="ruler-num"
			>10</text>
			<text
			   x="240"
			   y="-100"
			   class="ruler-num"
			>20</text>
			<text
			   x="240"
			   y="-150"
			   class="ruler-num"
			>30</text>
			<text
			   x="240"
			   y="-200"
			   class="ruler-num"
			>40</text>
			<text
			   x="240"
			   y="-250"
			   class="ruler-num"
			>50</text>    
			<text
			   x="240"
			   y="-300"
			   class="ruler-num"
			>60</text>  
			<text
			   x="240"
			   y="-500"
			   class="ruler-num"
			>100</text> 
		
			<text
			   x="240"
			   y="-750"
			   class="ruler-num"
			>150</text> 
		
			
			<text
			   x="240"
			   y="-1000"
			   class="ruler-num"
			>200</text> 
    
        </g>  
    </g>
    
    
 <!-- 
 
 -->
    <g
    		id="ingredient"
    		transform="translate(240,1185)">
    <g>
			<polyline
			   class="component-line"
			   points="0,0 50,0 150,-10 400,-10"
			/>
			<text
			   xml:space="preserve"
			   x="400"
			   y="-10"
			   class="component-text"
			   transform="translate(0,16)">Wasser &amp; Kohlensäure (2)</text>
	</g>
       <g>
			<polyline
			   class="component-line"
			   points="0,-10 50,-10 150,-35 400,-35"
			/>
			 <text
			   xml:space="preserve"
			   x="400"
			   y="-35"
			   class="component-text"
			   transform="translate(0,16)"
		   >Zucker (2)</text>
       </g>
       <g>
			<polyline
			   class="component-line"
			   points="0,-12.5 50,-12.5 150,-60 400,-60"
			/>
			 <text
			   xml:space="preserve"
			   x="400"
			   y="-60"
			   class="component-text"
			   transform="translate(0,16)"
		   >Koffein (0,5)</text>
       </g>
       <g>
			<polyline
			   class="component-line"
			   points="0,-30 50,-30 150,-85 400,-85"
			/>
			 <text
			   xml:space="preserve"
			   x="400"
			   y="-85"
			   class="component-text"
			   transform="translate(0,16)"
		   >Grundstoff (3,6)</text>
       </g>
       <g>
			<polyline
			   class="set-line"
			   points="0,-30 50,-30 150,-85 550,-85"
			/>
			 <text
			   xml:space="preserve"
			   x="550"
			   y="-85"
			   class="set-text"
			   transform="translate(0,20)"
		   >Zutaten <tspan class="set-num">(8,1)</tspan></text>
		   <g
		       transform="translate(560,-85)"
		   		>
			  <rect class="sub-total-bg"
			  	x="0"
			  	y="0"
			  	width="70"
			  	height="30"
			  	rx="5"
			  	ry="5"
			  />
			 <text class="sub-total-num"
			  x="35"
			  y="22"
			 >0,081€</text>
		  </g>
       </g>
       
       
       <g>
       		<polyline
			   class="component-line"
			   points="25,-35 50,-35 150,-110 400,-110"
			/>
			 <text
			   xml:space="preserve"
			   x="400"
			   y="-110"
			   class="component-text"
			   transform="translate(0,16)"
			>Kronkorken (1)</text>
       </g>
       <g>
			<polyline
			   class="set-line"
			   points="25,-97.5 50,-97.5 150,-145 550,-145"
			/>
			 <text
			   xml:space="preserve"
			   x="550"
			   y="-145"
			   class="set-text"
			   transform="translate(0,20)"
		   >Abfüller <tspan class="set-num">(13,4)</tspan></text>
		   <g
		       transform="translate(560,-145)"
		   		>
			  <rect class="sub-total-bg"
			  	x="0"
			  	y="0"
			  	width="70"
			  	height="30"
			  	rx="5"
			  	ry="5"
			  />
			 <text class="sub-total-num"
			  x="35"
			  y="22"
			 >0,215€</text>
		  </g>
   </g>
       
<!-- 
Premium
-->
       
       
   <g>
		<polyline
		   class="component-line"
		   points="0,-102.5 50,-102.5 150,-170 400,-170"
		/>
		 <text
		   xml:space="preserve"
		   x="400"
		   y="-170"
		   class="component-text"
		   transform="translate(0,16)"
	   >Rest (1,3)</text>
   </g>
   <g>
		<polyline
		   class="component-line"
		   points="0,-105 50,-105 150,-195 400,-195"
		/>
		 <text
		   xml:space="preserve"
		   x="400"
		   y="-195"
		   class="component-text"
		   transform="translate(0,16)"
	   >Etiketten (0,5)</text>
   </g>
   <g>
		<polyline
		   class="component-line"
		   points="0,-107.5 50,-107.5 150,-220 400,-220"
		/>
		 <text
		   xml:space="preserve"
		   x="400"
		   y="-220"
		   class="component-text"
		   transform="translate(0,16)"
	   >KMR (0,5)</text>
   </g>       
   <g>
		<polyline
		   class="component-line"
		   points="0,-116.5 50,-116.5 150,-245 400,-245"
		/>
		 <text
		   xml:space="preserve"
		   x="400"
		   y="-245"
		   class="component-text"
		   transform="translate(0,16)"
	   >Struktur (1,8)</text>
   </g>                 
   <g>
		<polyline
		   class="component-line"
		   points="0,-117 50,-117 150,-270 400,-270"
		/>
		 <text
		   xml:space="preserve"
		   x="400"
		   y="-270"
		   class="component-text"
		   transform="translate(0,16)"
	   >Sprecherkisten (0,1)</text>
   </g>      
   <g>
		<polyline
		   class="component-line"
		   points="0,-117.5 50,-117.5 150,-295 400,-295"
		/>
		 <text
		   xml:space="preserve"
		   x="400"
		   y="-295"
		   class="component-text"
		   transform="translate(0,16)"
	   >Dankeskisten (0,1)</text>
   </g>  
   <g>
		<polyline
		   class="component-line"
		   points="0,-120 50,-120 150,-320 400,-320"
		/>
		 <text
		   xml:space="preserve"
		   x="400"
		   y="-320"
		   class="component-text"
		   transform="translate(0,16)"
	   >Rücklagen (0,5)</text>
   </g>
   <g>
		<polyline
		   class="component-line"
		   points="0,-121 50,-121 150,-345 400,-345"
		/>
		 <text
		   xml:space="preserve"
		   x="400"
		   y="-345"
		   class="component-text"
		   transform="translate(0,16)"
	   >Umweltcent (0,2)</text>
   </g>
   <g>
		<polyline
		   class="component-line"
		   points="0,-131 50,-131 150,-370 400,-370"
		/>
		 <text
		   xml:space="preserve"
		   x="400"
		   y="-370"
		   class="component-text"
		   transform="translate(0,16)"
	   >Orga (2)</text>
   </g>
   <g>
		<polyline
		   class="component-line"
		   points="25,-141 50,-141 150,-395 400,-395"
		/>
		 <text
		   xml:space="preserve"
		   x="400"
		   y="-395"
		   class="component-text"
		   transform="translate(0,16)"
	   >Buchhaltung (2)</text>
   </g>
   <g>
		<polyline
		   class="component-line"
		   points="0,-161 50,-161 150,-420 400,-420"
		/>
		 <text
		   xml:space="preserve"
		   x="400"
		   y="-420"
		   class="component-text"
		   transform="translate(0,16)"
	   >Sprecher (4)</text>
   </g>
   <g>
		<polyline
		   class="component-line"
		   points="0,-176 50,-176 150,-445 400,-445"
		/>
		 <text
		   xml:space="preserve"
		   x="400"
		   y="-445"
		   class="component-text"
		   transform="translate(0,16)"
	   >Regler (3)</text>
   </g>
   <g>
		<polyline
		   class="set-line"
		   points="0,-176 50,-176 150,-445 550,-445"
		/>
		 <text
		   xml:space="preserve"
		   x="550"
		   y="-445"
		   class="set-text"
		   transform="translate(0,20)"
	   >Premium <tspan class="set-num">(16)</tspan></text>
	   <g
		   transform="translate(560,-445)"
			>
		  <rect class="sub-total-bg"
			x="0"
			y="0"
			width="70"
			height="30"
			rx="5"
			ry="5"
		  />
		 <text class="sub-total-num"
		  x="35"
		  y="22"
		 >0,375€</text>
	  </g>
   </g>      
<!--   

Großhändler
-->
	<g>
		<polyline
		   class="component-line"
		   points="0,-213.5 50,-213.5 150,-470 400,-470"
		/>
		 <text
		   xml:space="preserve"
		   x="400"
		   y="-470"
		   class="component-text"
		   transform="translate(0,16)"
	   >Spedition (7,5)</text>
    </g>
	<g>
		<polyline
		   class="set-line"
		   points="25,-243.5 50,-243.5 150,-500 550,-500"
		/>
		 <text
		   xml:space="preserve"
		   x="550"
		   y="-500"
		   class="set-text"
		   transform="translate(0,20)"
	   >Großhändler_innen <tspan class="set-num">(13,5)</tspan></text>
	   <g
		   transform="translate(560,-500)"
			>
		  <rect class="sub-total-bg"
			x="0"
			y="0"
			width="70"
			height="30"
			rx="5"
			ry="5"
		  />
		 <text class="sub-total-num"
		  x="35"
		  y="22"
		 >0,51€</text>
	   </g>
	</g>  


<!--   

Händler
-->      
       
	<g>
		<polyline
		   class="set-line"
		   points="25,-298.5 50,-298.5 150,-550 550,-550"
		/>
		 <text
		   xml:space="preserve"
		   x="550"
		   y="-550"
		   class="set-text"
		   transform="translate(0,20)"
	   >Händler_innen <tspan class="set-num">(11)</tspan></text>
	   <g
		   transform="translate(560,-550)"
			>
		  <rect class="sub-total-bg"
			x="0"
			y="0"
			width="70"
			height="30"
			rx="5"
			ry="5"
		  />
		 <text class="sub-total-num"
		  x="35"
		  y="22"
		 >0,62€</text>
	  </g>
   </g>  
       
       
<!--   

Gastronomen
-->    

			 <text
			   xml:space="preserve"
			   x="550"
			   y="-650"
			   class="set-text"
			   transform="translate(0,20)"
		   >Gastronom_innen<tspan class="set-num"></tspan></text>

		   
<!--   

UST
-->   


			 <text
			   xml:space="preserve"
			   x="400"
			   y="-875"
			   class="set-text"
			   transform="translate(0,-5)"
		   >UST<tspan class="set-num"></tspan></text>
		   <polyline points="0,-875 400,-875" class="dashed-line"/>


		   <text
			   xml:space="preserve"
			   x="400"
			   y="-875"
			   class="component-text"
			   transform="translate(0,16)"
		   >(D 19%, CH 2,2% A20%)</text>

		   
		   <text
			   xml:space="preserve"
			   x="400"
			   y="-1055"
			   class="set-text"
			   transform="translate(0,-5)"
		   >Pfand inkl. Kiste</text>

		   <line
				 x1="0"
				 y1="-1055"
				 
				 x2="400"
				 y2="-1055"
				 class="dashed-line"
			/>
		   
			
			
			
		   


         
         

			<!-- 40 < x < =870 -->
		   <text
			 x="400"
			 y="-1220"
			 class="title"
			 transform="translate(0,0)"
		   >Anteile pro Flasche</text>
		   <text
			x="400"
			y="-1189"
			class="subtitle"
			transform="translate(0,-5)"
			>premium Cola - 0,33l</text> 
   
			<line
				x1="-40"
				y1="-1189"
				
				x2="400"
				y2="-1189"
				class="set-line"
			/>   
			<text
			   xml:space="preserve"
			   x="400"
			   y="-1189"
			   class="component-text"
			   transform="translate(0,16)"
			   >1 Millimeter = 1 Cent</text>

   </g>
   
   <g
   		transform="translate(50, 1210)">
   <image height="20" width="100" x="0" xlink:href="by-sa.svg" y="0"/>
  <text
			   xml:space="preserve"

			   class="author"
			   transform="translate(85,15)"
			   >Premium Kollektiv</text>
   </g>


   
</svg>
